<?xml version="1.0" encoding="utf-8"?>
<!-- Generator: Adobe Illustrator 17.0.0, SVG Export Plug-In . SVG Version: 6.00 Build 0)  -->
<!DOCTYPE svg PUBLIC "-//W3C//DTD SVG 1.1//EN" "http://www.w3.org/Graphics/SVG/1.1/DTD/svg11.dtd">
<svg version="1.1" id="Layer_1" xmlns="http://www.w3.org/2000/svg" xmlns:xlink="http://www.w3.org/1999/xlink" x="0px" y="0px"
	 width="764.461px" height="153.888px" viewBox="0 0 764.461 153.888" enable-background="new 0 0 764.461 153.888"
	 xml:space="preserve">
<path d="M488.296,28.39c-2.31-5.44-5.94-9.98-10.89-13.63c-4.96-3.65-11.34-6.41-19.15-8.31c-7.81-1.89-17.22-2.84-28.23-2.84h-76.6
	v141.85h12.9V90.95h63.7c11.01,0,20.42-0.95,28.23-2.84s14.19-4.7,19.15-8.41c4.95-3.72,8.58-8.3,10.89-13.73
	c2.31-5.44,3.46-11.7,3.46-18.79S490.606,33.83,488.296,28.39z M475.906,61.53c-1.76,3.78-4.1,6.84-7.03,9.18
	c-2.92,2.34-6.3,4.08-10.12,5.22c-3.82,1.13-7.84,1.92-12.04,2.37c-4.2,0.45-8.46,0.66-12.76,0.62c-4.31-0.03-8.35-0.05-12.14-0.05
	h-55.49V15.69h55.49c9.78,0,18.24,0.38,25.36,1.14c7.14,0.75,13.02,2.25,17.67,4.49c4.65,2.23,8.1,5.42,10.34,9.55
	s3.35,9.56,3.35,16.31C478.536,52.96,477.656,57.74,475.906,61.53z"/>
<path d="M744.658,3.613v45.573c-3.572,5.295-7.627,10.347-12.16,15.158c-4.536,4.813-9.586,9.056-15.152,12.733
	c-5.564,3.678-11.714,6.601-18.448,8.764c-6.731,2.166-14.118,3.248-22.155,3.248c-10.374,0-19.083-1.253-26.125-3.764
	c-7.044-2.507-12.729-6.065-17.059-10.671c-4.329-4.604-7.437-10.138-9.326-16.601c-1.889-6.461-2.834-13.645-2.834-21.55V6.14
	l-8.419-2.527l-7.63-1.755c-1.514-0.275-2.993-0.516-4.439-0.723c-1.445-0.206-2.977-0.395-4.594-0.567
	c-1.618-0.172-3.389-0.31-5.316-0.413C589.074,0.051,586.905,0,584.496,0c-7.02,0-13.815,0.809-20.389,2.426
	c-6.571,1.617-12.852,3.854-18.84,6.71c-5.986,2.856-11.682,6.28-17.085,10.272c-5.402,3.992-10.409,8.362-15.021,13.111V3.612
	h-12.904v141.842h12.904V46.97c3.992-4.818,8.466-9.376,13.42-13.678c4.956-4.301,10.342-8.069,16.157-11.304
	c5.815-3.235,12.111-5.798,18.892-7.691c6.778-1.893,14.023-2.838,21.731-2.838c5.573,0,10.133,0.361,13.678,1.083
	c3.544,0.723,6.315,1.394,8.31,2.013c0,0,2.317,0.751,2.835,1.168v23.608c0,5.162,0.463,10.254,1.392,15.278
	c0.93,5.025,2.442,9.825,4.54,14.401c2.096,4.577,4.865,8.809,8.304,12.697c3.441,3.889,7.65,7.244,12.635,10.065
	c4.986,2.821,10.831,5.042,17.537,6.659c6.704,1.618,14.391,2.426,23.055,2.426c7.635,0,14.888-0.946,21.765-2.839
	c6.879-1.893,13.255-4.404,19.137-7.536c5.882-3.131,11.209-6.745,15.99-10.839c4.778-4.095,8.818-8.379,12.12-12.852v26.84
	c0,6.882-1.875,12.973-5.622,18.271c-3.75,5.299-8.838,9.756-15.267,13.369c-6.432,3.613-13.977,6.366-22.642,8.258
	c-8.666,1.893-17.948,2.839-27.853,2.839c-7.016,0-13.531-0.327-19.547-0.981c-6.017-0.654-11.673-1.583-16.97-2.788
	c-5.296-1.204-10.281-2.598-14.957-4.181c-4.678-1.583-9.215-3.304-13.616-5.161v14.968c8.19,3.028,17.756,5.386,28.699,7.072
	c10.943,1.686,22.952,2.529,36.028,2.529c12.043,0,23.244-1.084,33.602-3.252c10.357-2.167,19.339-5.489,26.944-9.962
	c7.604-4.473,13.574-10.1,17.91-16.878c4.336-6.779,6.504-14.814,6.504-24.104V3.613H744.658z"/>
<linearGradient id="SVGID_1_" gradientUnits="userSpaceOnUse" x1="190.3524" y1="109.789" x2="190.3524" y2="109.789">
	<stop  offset="0" style="stop-color:#2484C6"/>
	<stop  offset="1" style="stop-color:#2484C6;stop-opacity:0"/>
</linearGradient>
<path fill="url(#SVGID_1_)" d="M190.352,109.789"/>
<linearGradient id="SVGID_2_" gradientUnits="userSpaceOnUse" x1="164.2218" y1="137.7369" x2="164.2218" y2="137.7369" gradientTransform="matrix(1.0042 0.031 0.0235 1.1783 -3.357 -27.9966)">
	<stop  offset="0" style="stop-color:#2484C6"/>
	<stop  offset="1" style="stop-color:#2484C6;stop-opacity:0"/>
</linearGradient>
<path fill="url(#SVGID_2_)" d="M164.791,139.39"/>
<path d="M325.666,3.86v102.1c-3.99,3.37-8.81,6.88-14.48,10.53c-5.67,3.65-11.91,6.97-18.71,9.96c-6.8,3-14.05,5.47-21.74,7.43
	c-7.7,1.97-15.57,2.95-23.6,2.95c-6.95,0-13.18-0.57-18.71-1.71c-5.53-1.13-10.24-3.16-14.12-6.09c-3.88-2.92-6.85-6.93-8.91-12.02
	c-2.07-5.1-3.06-11.6-2.99-19.51V3.86h-13.22v96.42c0,4.38,0.45,8.53,1.32,12.46l-0.01-0.01c-9.28,5.91-20.36,11.27-31.74,15.33
	c-4.34,1.62-9.13,3.06-14.36,4.34c-5.24,1.27-10.71,2.28-16.43,3.04c-5.72,0.76-11.36,1.14-16.94,1.14
	c-13.09,0-24.54-1.33-34.35-3.98c-9.82-2.65-18.08-6.45-24.8-11.4c-6.71-4.96-11.89-10.98-15.54-18.07
	c-2.04-3.95-3.6-8.17-4.74-12.64c4.76-2.12,8.46-6.19,10.07-11.21h139.39v-3.2c0-11.42-1.79-21.69-5.37-30.81
	c-3.57-9.12-8.8-16.88-15.69-23.28c-6.88-6.4-15.34-11.32-25.39-14.76s-21.51-5.16-34.38-5.16c-12.39,0-23.71,1.78-33.96,5.36
	c-10.26,3.58-19.06,8.61-26.43,15.08c-7.36,6.46-13.09,14.21-17.19,23.22c-1.49,3.3-2.71,6.71-3.66,10.24
	c-7.67,2.23-13.29,9.3-13.29,17.69c0,8.04,5.16,14.87,12.35,17.38c1.07,5.14,2.68,10,4.86,14.57c4.27,8.94,10.34,16.57,18.22,22.86
	c7.88,6.3,17.43,11.14,28.65,14.51c11.22,3.37,23.78,5.06,37.68,5.06c5.99,0,11.47-0.19,16.46-0.57c4.99-0.38,9.9-0.97,14.71-1.76
	c4.82-0.79,9.71-1.82,14.66-3.09l0.01-0.03c15.71-3.82,29.97-9.73,42.47-16.39c2.03,3.38,4.53,6.44,7.5,9.18
	c4.71,4.34,10.63,7.71,17.75,10.12c7.11,2.41,15.45,3.61,25.01,3.61c8.46,0,16.47-0.89,24.04-2.68c7.56-1.79,14.66-4.08,21.3-6.87
	c6.63-2.78,12.81-5.85,18.51-9.19c5.71-3.33,10.97-6.55,15.79-9.65v24.99h13.21V3.86H325.666z M36.026,47.23
	c3.3-6.57,7.85-12.35,13.63-17.34c5.79-4.99,12.85-8.97,21.18-11.93s18.04-4.44,29.13-4.44c11.78,0,21.89,1.48,30.32,4.44
	c8.44,2.96,15.4,6.95,20.87,11.98c5.48,5.02,9.6,10.82,12.35,17.39c2.76,6.57,4.37,13.47,4.86,20.7H41.656
	c-1.55-4.85-5.06-8.8-9.59-10.97C33.106,53.7,34.416,50.42,36.026,47.23z M24.116,84.08c-2.89,0-5.51-1.19-7.41-3.1
	c-1.86-1.88-3.01-4.47-3.01-7.32c0-3.04,1.31-5.76,3.39-7.67c1.85-1.71,4.32-2.76,7.03-2.76c2.25,0,4.32,0.72,6.02,1.93
	c1.09,0.78,2.02,1.75,2.74,2.87c1.05,1.63,1.67,3.56,1.67,5.63c0,2.07-0.62,4-1.66,5.62c-0.75,1.16-1.72,2.17-2.85,2.95
	C28.356,83.4,26.316,84.08,24.116,84.08z"/>
</svg>
